<?xml version="1.0" encoding="utf-8"?>
<!-- Generator: Adobe Illustrator 25.2.1, SVG Export Plug-In . SVG Version: 6.00 Build 0)  -->
<svg version="1.1" id="Ebene_1" xmlns="http://www.w3.org/2000/svg" xmlns:xlink="http://www.w3.org/1999/xlink" x="0px" y="0px"
	 viewBox="0 0 53.9 59.5" style="enable-background:new 0 0 53.9 59.5;" xml:space="preserve">
<style type="text/css">
	.st0{fill:#F0E9DC;}
</style>
<path class="st0" d="M40,38.1L50.6,35c0.5-0.1,0.5-0.8,0-1L40,31c-1.1-0.3-2.3-0.5-3.4-0.5c1.4-1.2,2.6-2.6,3.6-4.2l6.6-10.9
	c0.3-0.5-0.2-1-0.7-0.7l-10.9,6.6c-1.8,1.1-3.3,2.5-4.6,4.1c0.5-2.9,0.5-5.9-0.1-8.8L27.4,2c-0.1-0.5-0.9-0.5-1,0l-3.1,14.6
	c-0.6,2.9-0.6,5.9-0.1,8.8c-1.2-1.6-2.8-3-4.6-4.1L7.8,14.7c-0.5-0.3-1,0.2-0.7,0.7l6.6,10.9c1,1.6,2.2,3,3.6,4.2
	c-1.1,0-2.3,0.2-3.4,0.5L3.3,34c-0.5,0.1-0.5,0.8,0,1l10.6,3.1c1.5,0.4,3.1,0.6,4.6,0.4c-0.1,0.2-0.2,0.3-0.3,0.5l-3.4,6.9
	c-0.2,0.4,0.2,0.9,0.7,0.7c0.5-0.2,1.1-0.5,1.7-0.8c3.6-1.8,6.9-4.2,9.7-7l0,0l0,0c2.8,2.8,6.1,5.2,9.7,7c0.6,0.3,1.2,0.6,1.7,0.8
	c0.4,0.2,0.9-0.2,0.7-0.7L35.6,39c-0.1-0.2-0.2-0.3-0.3-0.5C36.9,38.6,38.4,38.5,40,38.1z"/>
</svg>
