<?xml version="1.0" encoding="utf-8"?>
<!-- Generator: Adobe Illustrator 25.2.2, SVG Export Plug-In . SVG Version: 6.00 Build 0)  -->
<svg version="1.1" id="Ebene_1" xmlns="http://www.w3.org/2000/svg" xmlns:xlink="http://www.w3.org/1999/xlink" x="0px" y="0px"
	 viewBox="0 0 16 16" style="enable-background:new 0 0 16 16;" xml:space="preserve">
<path d="M12.3,12.3l3.5-1c0.2,0,0.2-0.3,0-0.3l-3.5-1c-0.4-0.1-0.7-0.2-1.1-0.2C11.6,9.5,12,9,12.4,8.5l2.2-3.6
	c0.1-0.1-0.1-0.3-0.2-0.2l-3.6,2.2c-0.6,0.4-1.1,0.8-1.5,1.3c0.2-1,0.2-1.9,0-2.9l-1-4.8c0-0.2-0.3-0.2-0.3,0l-1,4.8
	c-0.2,1-0.2,1.9,0,2.9c-0.4-0.5-0.9-1-1.5-1.3L1.8,4.7C1.6,4.6,1.4,4.8,1.5,4.9l2.2,3.6C4,9,4.4,9.5,4.9,9.9c-0.4,0-0.7,0.1-1.1,0.2
	l-3.5,1c-0.2,0-0.2,0.3,0,0.3l3.5,1c0.5,0.1,1,0.2,1.5,0.1c0,0.1-0.1,0.1-0.1,0.2l-1.1,2.3C4,15,4.2,15.2,4.3,15.1
	C4.5,15,4.6,15,4.8,14.9C6,14.3,7.1,13.5,8,12.6l0,0l0,0c0.9,0.9,2,1.7,3.2,2.3c0.2,0.1,0.4,0.2,0.5,0.3c0.1,0.1,0.3-0.1,0.2-0.2
	l-1.1-2.3c0-0.1-0.1-0.1-0.1-0.2C11.3,12.5,11.8,12.5,12.3,12.3z"/>
</svg>
