<?xml version="1.0" encoding="utf-8"?>
<!-- Generator: Adobe Illustrator 25.2.1, SVG Export Plug-In . SVG Version: 6.00 Build 0)  -->
<svg version="1.1" id="Ebene_1" xmlns="http://www.w3.org/2000/svg" xmlns:xlink="http://www.w3.org/1999/xlink" x="0px" y="0px"
	 viewBox="0 0 635.4 197.6" style="enable-background:new 0 0 635.4 197.6;" xml:space="preserve">
<g>
	<path d="M204.8,76.8c9.7,0,17.1,1.2,22.4,3.5c5.3,2.3,7.9,5.7,7.9,10c0,10.2-9.4,17.4-21.8,20.9c-6.3,1.8-12.5,2.7-18.5,2.7
		c-1.2,0-1.8,0-2.2-0.1c-1.9,12.2-3,20-3,23c0,3.6,1,4.9,2.7,5.3c0.9,0.3,2.2,0.4,4,0.4c9.4,0,18.9-1.9,28.4-5.8l1,3.2
		c-10.3,4.1-20.1,6.2-29.3,6.2c-10.2,0-18.1-0.8-23.7-2.2c-11.3-3-14.9-8.4-14.9-18c0-5.8,2.4-25.6,7.5-34.9
		C170.3,81.7,181.2,76.8,204.8,76.8z M204,80.4c-1.9,0-3.2,0.5-4.1,1.5c-0.9,1-1.7,3.5-2.6,7.2c-0.9,3.7-2.2,10.8-4,21.2
		c0.4,0.1,0.9,0.1,1.7,0.1c2.4,0,4.4-0.5,6.1-1.7c4.8-4,6.8-14.9,6.8-23.3C207.8,81.3,206.7,80.4,204,80.4z"/>
	<path d="M303.6,76.8c6.7,0,10,1.9,10,8c0,6.2-0.4,10.3-3.6,13.4c-1.7,1.7-4.1,2.4-7.5,2.4c-3.2,0-5.4-0.4-6.6-1s-1.8-1.8-1.8-3.3
		c0-0.5,0.1-1.5,0.3-3.1c0.4-2.1,0.5-3.7,0.5-5.1c0-1.9-0.6-3-2.1-3s-2.7,0.6-3.7,2.1c-1.2,1.4-2.4,3.7-4.1,7
		c-0.1,0.4-0.4,0.6-0.5,1c-0.3,0.4-0.5,0.9-0.8,1.4c-2.3,4.5-4.2,11.6-5.8,21.1l-4.6,27.4H240l10.7-63.8h-5.9l0.6-3.6H278
		c3.2,0,5.7,2.2,5.1,5.3l-1.7,10.7h0.4c5.3-9.7,10.2-14.2,14.4-15.7C298.5,77.1,300.9,76.8,303.6,76.8z"/>
	<path d="M321.6,55.8l0.5-3.6h34.1c3.7,0,5.8,2.6,5.3,6.6l-4.6,26.9c1.9-5.3,7-8.9,18.8-8.9c17.5,0,23.3,7.1,23.3,19.8
		c0,6.8-2.6,25.2-7.1,34.6c-4.6,9.4-15.6,14.8-39.6,14.8c-9.4,0-16.6-0.8-21.8-2.2c-10.3-3-13.8-8.4-13.8-17.6c0-4,0.9-9.9,1.9-15.6
		l9.1-54.8H321.6z M365.5,81.1c-3,0-6.4,4.1-8.5,9.1c-1.2,2.6-1.8,5.1-2.2,7.7l-2.2,13.1l-2.7,17.6c-0.6,4.5-1,7.5-1,9
		c0,4,0.9,4.6,4,4.6c1.9,0,3.2-0.5,4.1-1.7c0.9-1,1.7-3.5,2.4-7.3s2.1-11.5,4-22.7l0.6-3.7c1-5.9,1.8-10.9,2.4-14.9s0.9-6.7,0.9-8.2
		C367.3,81.7,367,81.1,365.5,81.1z"/>
	<path d="M455,56.2l-3.3,21.4h11.3l-0.6,3.6h-11.5l-8.1,50.3c-0.4,2.2-0.5,3.9-0.5,5c0,2.7,1,4.1,3.1,4.1s4.2-1.3,6.7-3.9l2.6,1.9
		c-3.6,5.3-11.5,7.9-23.6,7.9c-16.1,0-21.2-5.1-21.2-14.8c0-1.9,0.4-5.3,1-9.9l7-40.7h-5.9l0.6-3.6c13.3,0,28.3-7.5,38.7-21.4H455z"
		/>
	<path d="M509.1,136.7l2.6,1.9c-3.6,5.3-11.5,7.9-23.6,7.9c-16.1,0-21.2-5.1-21.2-14.8c0-1.9,0.4-5.3,1-9.9l6.8-40.7h-5.3l0.6-3.6
		h32.6c3.2,0,5.7,2.1,5.1,5l-8,48.9c-0.4,2.2-0.5,3.9-0.5,4.9c0,2.8,1,4.2,3.1,4.2S506.6,139.3,509.1,136.7z M491.6,70.2
		c-11.7,0-16.6-3.7-16.6-9.5c0-7.1,6.2-12.2,20.1-12.2c12,0,17.1,3.6,17.1,9.3C512.2,64,506.5,70.2,491.6,70.2z"/>
	<path d="M564.5,76.8c9.7,0,17.1,1.2,22.4,3.5c5.3,2.3,7.9,5.7,7.9,10c0,10.2-9.4,17.4-21.8,20.9c-6.3,1.8-12.5,2.7-18.5,2.7
		c-1.2,0-1.8,0-2.2-0.1c-1.9,12.2-3,20-3,23c0,3.6,1,4.9,2.7,5.3c0.9,0.3,2.2,0.4,4,0.4c9.4,0,18.9-1.9,28.4-5.8l1,3.2
		c-10.3,4.1-20.1,6.2-29.3,6.2c-10.2,0-18.1-0.8-23.7-2.2c-11.3-3-14.9-8.4-14.9-18c0-5.8,2.4-25.6,7.5-34.9
		C530,81.7,541,76.8,564.5,76.8z M563.8,80.4c-1.9,0-3.2,0.5-4.1,1.5c-0.9,1-1.7,3.5-2.6,7.2c-0.9,3.7-2.2,10.8-4,21.2
		c0.4,0.1,0.9,0.1,1.7,0.1c2.4,0,4.4-0.5,6.1-1.7c4.8-4,6.8-14.9,6.8-23.3C567.6,81.3,566.5,80.4,563.8,80.4z"/>
	<g>
		<path d="M152.3,65.5l-12,75.8h8.7l-0.6,3.7H96l0.6-3.7h5.3l6.4-40H94l-6.3,40h5l-0.4,2.6l-0.2,1.1h-0.3c-4.3,0-8.6-0.6-12.9-1.5
			c-3.7-0.8-7.5-1.2-11.4-1.2c-5.8,0-11.5,0.9-16.8,2.7c-3.3,1.1-6.4,2.5-9.4,4.2l-0.7-4.2c2.8-1.5,5.7-2.7,8.7-3.7l12.5-79h-8.2
			l0.6-3.7h51.6l-0.5,3.7h-5.2l-5.7,35.4h14.3l5.8-35.4h-5.5l0.6-3.7h0c6.6,0,13.1,0.8,19.4,2.4c4.2,1,8.5,1.6,12.9,1.6
			c6.5,0,13-1.2,19-3.5l-0.3,4.3C158,64.2,155.2,64.9,152.3,65.5z"/>
	</g>
</g>
</svg>
